<?xml version="1.0" encoding="UTF-8" standalone="no"?>
<!DOCTYPE svg PUBLIC "-//W3C//DTD SVG 1.1//EN" "http://www.w3.org/Graphics/SVG/1.1/DTD/svg11.dtd">
<svg width="100%" height="100%" viewBox="0 0 100 110" version="1.1" xmlns="http://www.w3.org/2000/svg" xmlns:xlink="http://www.w3.org/1999/xlink" xml:space="preserve" xmlns:serif="http://www.serif.com/" style="fill-rule:evenodd;clip-rule:evenodd;stroke-linejoin:round;stroke-miterlimit:2;">
    <g id="Mesa-de-trabajo3" serif:id="Mesa de trabajo3" transform="matrix(0.357143,0,0,1,0,0)">
        <rect x="0" y="0" width="280" height="110" style="fill:none;"/>
        <g transform="matrix(3.92707,7.06568e-08,2.58311e-07,1.40252,2.5917,5.92591)">
            <g id="Mesa-de-trabajo2" serif:id="Mesa de trabajo2">
                <g>
                    <g id="Mesa-de-trabajo1" serif:id="Mesa de trabajo1">
                        <g>
                            <path d="M34.99,0C27.84,0 21.2,2.14 15.66,5.82C15.48,5.94 15.44,6.18 15.56,6.36L17.87,9.66C17.98,9.82 18.21,9.86 18.37,9.75C22.67,6.91 27.61,5.23 32.82,4.86L32.82,9.94C20.03,11.17 10.03,21.95 10.03,35.06C10.03,48.17 20.03,58.95 32.82,60.18L32.82,65.12C25.74,64.61 19.01,61.61 13.9,56.63C8.17,51.04 4.94,43.59 4.78,35.63C4.78,35.43 4.61,35.27 4.41,35.27L0.37,35.27C0.17,35.27 0,35.44 0,35.64C0.35,54.67 15.88,69.98 34.99,69.98C42.33,69.98 49.14,67.72 54.76,63.86C54.93,63.74 54.97,63.51 54.85,63.34L52.53,60.02C52.42,59.86 52.2,59.82 52.04,59.93C47.83,62.82 42.96,64.57 37.83,65.04L37.83,60.15C50.57,58.87 60.52,48.11 60.52,35.04C60.52,21.97 50.57,11.21 37.83,9.93L37.83,4.9C44.67,5.55 51.15,8.52 56.1,13.36C61.83,18.96 65.05,26.43 65.2,34.41C65.2,34.6 65.36,34.76 65.55,34.76L69.59,34.76C69.81,34.76 69.98,34.58 69.98,34.37C69.65,15.34 54.11,0 34.99,0ZM14.81,35.06C14.81,24.61 22.69,15.98 32.82,14.76L32.82,31.58C31.62,32.38 30.83,33.73 30.83,35.28C30.83,36.83 31.62,38.18 32.82,38.98L32.82,55.36C22.69,54.14 14.81,45.51 14.81,35.06ZM55.74,35.06C55.74,45.47 47.91,54.08 37.83,55.34L37.83,38.9C38.97,38.1 39.72,36.77 39.72,35.27C39.72,33.77 38.97,32.45 37.83,31.64L37.83,14.78C47.91,16.04 55.74,24.65 55.74,35.06Z" style="fill-rule:nonzero;"/>
                        </g>
                    </g>
                </g>
            </g>
        </g>
    </g>
</svg>
